<svg xmlns="http://www.w3.org/2000/svg" width="16" height="16" viewBox="0 0 16 16"><g opacity="0.5"><path d="M11.352,0h-6.7A4.653,4.653,0,0,0,0,4.648v6.7A4.653,4.653,0,0,0,4.648,16h6.7A4.653,4.653,0,0,0,16,11.352v-6.7A4.653,4.653,0,0,0,11.352,0Zm3.4,11.352a3.4,3.4,0,0,1-3.4,3.4h-6.7a3.4,3.4,0,0,1-3.4-3.4v-6.7a3.4,3.4,0,0,1,3.4-3.4h6.7a3.4,3.4,0,0,1,3.4,3.4Z"/><g transform="translate(3.688 3.688)"><path d="M122.313,118a4.313,4.313,0,1,0,4.313,4.313A4.317,4.317,0,0,0,122.313,118Zm0,7.375a3.063,3.063,0,1,1,3.063-3.062A3.066,3.066,0,0,1,122.313,125.375Z" transform="translate(-118 -118)"/></g><g transform="translate(11.734 3.021)"><g transform="translate(0 0)"><circle cx="0.5" cy="0.5" r="0.5" transform="translate(0.266 -0.021)"/></g></g></g></svg>