<svg xmlns="http://www.w3.org/2000/svg" width="80.983" height="21.032" viewBox="0 0 80.983 21.032"><g transform="translate(-245.394 -0.832)"><path d="M10.5,20.035a10.874,10.874,0,0,1-4.088-.787,10.673,10.673,0,0,1-1.784-.924A10.487,10.487,0,0,1,3.076,17.1a10.21,10.21,0,0,1-1.282-1.483,9.883,9.883,0,0,1-.968-1.7,9.624,9.624,0,0,1,0-7.8,9.883,9.883,0,0,1,.968-1.7A10.209,10.209,0,0,1,3.076,2.934,10.487,10.487,0,0,1,4.63,1.711,10.673,10.673,0,0,1,6.414.787a11.008,11.008,0,0,1,8.176,0,10.673,10.673,0,0,1,1.784.924,10.487,10.487,0,0,1,1.554,1.223,10.21,10.21,0,0,1,1.282,1.483,9.883,9.883,0,0,1,.968,1.7,9.624,9.624,0,0,1,0,7.8,9.883,9.883,0,0,1-.968,1.7A10.21,10.21,0,0,1,17.929,17.1a10.487,10.487,0,0,1-1.554,1.223,10.673,10.673,0,0,1-1.784.924A10.874,10.874,0,0,1,10.5,20.035Zm0-17.612a8.158,8.158,0,0,0-3.082.6A7.918,7.918,0,0,0,4.9,4.648a7.559,7.559,0,0,0-1.7,2.414,7.333,7.333,0,0,0,0,5.912,7.56,7.56,0,0,0,1.7,2.414,7.918,7.918,0,0,0,2.517,1.627,8.255,8.255,0,0,0,6.164,0A7.918,7.918,0,0,0,16.1,15.388a7.56,7.56,0,0,0,1.7-2.414,7.333,7.333,0,0,0,0-5.912,7.56,7.56,0,0,0-1.7-2.414A7.918,7.918,0,0,0,13.584,3.02,8.158,8.158,0,0,0,10.5,2.424Z" transform="translate(269.082 1.828)"/><path d="M-2105.606,2886.554v-20.723l9.1,12.912,9.137-12.912v20.723h-2.291v-13.637l-6.846,9.423-6.873-9.423v13.637Z" transform="translate(2351 -2865)"/><path d="M-2128.849,2893.992v-2.567a5.917,5.917,0,0,0,2.811.243c1.088-.327.949-1.7.949-1.7l0-15.333h2.546l.011,15.973a3.58,3.58,0,0,1-1.6,3.015C-2125.847,2894.741-2128.849,2893.992-2128.849,2893.992Z" transform="translate(2422.838 -2872.384)"/><path d="M9.856,19.712a9.81,9.81,0,0,1-5.511-1.683A9.886,9.886,0,0,1,.774,13.692a9.843,9.843,0,0,1,.909-9.347A9.884,9.884,0,0,1,6.02.774,9.8,9.8,0,0,1,9.856,0h9.872l-.016,10.277H19.7a9.806,9.806,0,0,1-1.674,5.089,9.885,9.885,0,0,1-4.337,3.571A9.8,9.8,0,0,1,9.856,19.712Zm0-17.47A7.528,7.528,0,0,0,4.5,4.473a7.63,7.63,0,0,0,2.407,12.4,7.538,7.538,0,0,0,8.3-1.632,7.611,7.611,0,0,0,2.217-5.319h.006V3.554l.02.024,0,0V2.254h-.023V2.246h-7.35C10.008,2.244,9.931,2.243,9.856,2.243Z" transform="translate(306.648 2.071)"/></g></svg>