<svg xmlns="http://www.w3.org/2000/svg" width="12.531" height="16" viewBox="0 0 12.531 16"><g transform="translate(-5.439)" opacity="0.5"><path d="M17.774,3.984a5.163,5.163,0,0,0-1.191-2.108A5.724,5.724,0,0,0,14.66.517,6.331,6.331,0,0,0,11.879.006c-.344.016-.68.034-1.009.081a6.809,6.809,0,0,0-2.5.846,5.867,5.867,0,0,0-2.23,2.254A7.918,7.918,0,0,0,5.494,5.1a5.169,5.169,0,0,0,.252,2.461A3.323,3.323,0,0,0,7.027,9.227a1.6,1.6,0,0,0,.7.3c.5-.01.6-.491.651-.722.009-.044.018-.087.028-.127s.021-.074.034-.114a1.015,1.015,0,0,0,.007-.823,1.574,1.574,0,0,0-.195-.258,1.182,1.182,0,0,1-.1-.118,2.318,2.318,0,0,1-.36-1.318,3.881,3.881,0,0,1,.473-1.89A3.736,3.736,0,0,1,11.034,2.2a4.84,4.84,0,0,1,2.136.128,2.9,2.9,0,0,1,1.382.921,2.934,2.934,0,0,1,.616,1.687,6.5,6.5,0,0,1-.041,1.148,5.153,5.153,0,0,1-.955,2.643,1.824,1.824,0,0,1-1.377.817A1.2,1.2,0,0,1,12,9.334a.946.946,0,0,1-.392-.578,1.782,1.782,0,0,1,.1-.876l.014-.049c.074-.27.152-.517.228-.76.12-.383.244-.778.347-1.237a2.828,2.828,0,0,0,.047-1.278,1.441,1.441,0,0,0-.678-.945,1.662,1.662,0,0,0-1.322-.1,2.227,2.227,0,0,0-1.361,1.62A3.51,3.51,0,0,0,8.888,6.4a3.986,3.986,0,0,0,.255,1.032l-.015.05c-.01.034-.019.066-.026.094-.153.638-.3,1.268-.45,1.9-.141.6-.282,1.192-.426,1.793l-.033.135a10.249,10.249,0,0,0-.335,2l-.016.316a9.359,9.359,0,0,0,.016,1.758.492.492,0,0,0,.292.442A.345.345,0,0,0,8.36,16c.2,0,.383-.206.536-.38a7.756,7.756,0,0,0,1.3-2.2,9.37,9.37,0,0,0,.387-1.267l.065-.252c.079-.3.155-.607.232-.909l.005-.02a2.746,2.746,0,0,0,.494.339,3.188,3.188,0,0,0,1.343.384,4.265,4.265,0,0,0,1.477-.181,4.355,4.355,0,0,0,1.154-.522,5.878,5.878,0,0,0,2.483-4.08,8.179,8.179,0,0,0,.131-1.448A5.231,5.231,0,0,0,17.774,3.984Zm-.565,2.823a5.252,5.252,0,0,1-2.2,3.65,3.721,3.721,0,0,1-.986.446,3.635,3.635,0,0,1-1.258.158,2.525,2.525,0,0,1-1.078-.306,1.642,1.642,0,0,1-.681-.624l-.391-.676-.353,1.384c-.076.3-.152.6-.23.9L9.967,12a8.73,8.73,0,0,1-.358,1.181,7.238,7.238,0,0,1-1.145,1.967,11.046,11.046,0,0,1,.017-1.389l.016-.32a9.732,9.732,0,0,1,.318-1.883l.033-.136c.144-.6.285-1.2.426-1.8.148-.628.3-1.256.449-1.893,0-.018.011-.039.018-.061a.587.587,0,0,0,.024-.4,3.466,3.466,0,0,1-.241-.936A2.876,2.876,0,0,1,9.6,5.29a1.606,1.606,0,0,1,.951-1.179,1.039,1.039,0,0,1,.337-.054.949.949,0,0,1,.457.106.815.815,0,0,1,.38.546,2.273,2.273,0,0,1-.05.987c-.1.432-.212.8-.333,1.185-.079.25-.158.5-.235.781l-.013.049a2.322,2.322,0,0,0-.1,1.195,1.571,1.571,0,0,0,.642.949,1.873,1.873,0,0,0,1.187.332,2.452,2.452,0,0,0,1.858-1.061,5.772,5.772,0,0,0,1.088-2.966A7.191,7.191,0,0,0,15.8,4.9a3.562,3.562,0,0,0-.757-2.045,3.54,3.54,0,0,0-1.683-1.127,5.5,5.5,0,0,0-2.437-.15A4.355,4.355,0,0,0,7.7,3.851a4.506,4.506,0,0,0-.549,2.193,2.939,2.939,0,0,0,.468,1.674,1.774,1.774,0,0,0,.147.183,1.075,1.075,0,0,1,.12.153.906.906,0,0,1-.063.318c-.015.049-.029.1-.041.139s-.025.106-.036.161a1.534,1.534,0,0,1-.052.2,1.6,1.6,0,0,1-.288-.161,2.72,2.72,0,0,1-1.072-1.4,4.633,4.633,0,0,1-.216-2.092A7.257,7.257,0,0,1,6.7,3.5,5.231,5.231,0,0,1,8.692,1.486,6.18,6.18,0,0,1,10.961.72c.3-.044.62-.061.948-.076a5.67,5.67,0,0,1,2.5.457,5.089,5.089,0,0,1,1.713,1.21,4.537,4.537,0,0,1,1.046,1.854,4.585,4.585,0,0,1,.168,1.3A7.637,7.637,0,0,1,17.209,6.808Z"/></g></svg>