<svg xmlns="http://www.w3.org/2000/svg" width="21.778" height="16" viewBox="0 0 21.778 16"><g transform="translate(0 -6.5)" opacity="0.5"><g transform="translate(0 6.5)"><path d="M17.448,6.5H4.331A4.342,4.342,0,0,0,0,10.844v7.312A4.342,4.342,0,0,0,4.331,22.5H17.448a4.342,4.342,0,0,0,4.331-4.344V10.844A4.342,4.342,0,0,0,17.448,6.5Zm3.442,11.656a3.452,3.452,0,0,1-3.442,3.455H4.331A3.453,3.453,0,0,1,.889,18.156V10.844A3.453,3.453,0,0,1,4.331,7.389H17.448a3.453,3.453,0,0,1,3.442,3.455Z" transform="translate(0 -6.5)"/><path d="M24.827,19.554l-6.158-3.607a.444.444,0,0,0-.669.384v7.213a.444.444,0,0,0,.669.384l6.158-3.606a.445.445,0,0,0,0-.768Zm-5.938,3.214V17.106l4.834,2.832Z" transform="translate(-10 -11.714)"/></g></g></svg>